<?xml version="1.0" encoding="UTF-8"?>
<svg version="1.1" xmlns="http://www.w3.org/2000/svg" width="512" height="512">
<path d="M0 0 C5.89028491 3.50671623 10.55855237 8.96109999 12.625 15.5 C13.70642019 24.18551167 12.72125944 31.28491531 7.625 38.5 C3.5297619 42.5 3.5297619 42.5 0.625 42.5 C0.955 51.08 1.285 59.66 1.625 68.5 C4.079375 69.03625 6.53375 69.5725 9.0625 70.125 C16.94907125 71.99180006 23.95721331 74.49831996 28.625 81.5 C28.625 82.82 28.625 84.14 28.625 85.5 C29.21966064 85.48477295 29.81432129 85.4695459 30.42700195 85.45385742 C39.26868816 85.33291875 48.01381237 86.0510255 56.8125 86.8125 C57.60369232 86.88035706 58.39488464 86.94821411 59.21005249 87.01812744 C91.50683375 89.80459941 117.7585063 92.85014618 141.625 116.5 C142.30175781 117.12777344 142.97851562 117.75554687 143.67578125 118.40234375 C150.43839492 124.77509499 155.19374543 132.57229013 159.8125 140.5625 C160.15877441 141.16054443 160.50504883 141.75858887 160.86181641 142.37475586 C162.75510105 145.72225598 164.20429828 148.9912454 165.4375 152.625 C166.59634025 155.37787815 167.21216146 156.28324194 169.88671875 157.6875 C171.75870802 158.32840931 173.64559963 158.92694447 175.54296875 159.48828125 C185.62570639 162.79807726 192.86672532 168.53859879 198.4375 177.375 C201.32208206 184.96600543 200.78469712 193.57054553 200.79296875 201.5859375 C200.79629715 202.72350494 200.79962555 203.86107239 200.80305481 205.03311157 C200.80809465 207.4283203 200.81046405 209.82353598 200.81030273 212.21875 C200.81248912 215.85688988 200.83067638 219.49472613 200.84960938 223.1328125 C200.85254404 225.47135314 200.85452835 227.80989521 200.85546875 230.1484375 C200.86265427 231.22274017 200.86983978 232.29704285 200.87724304 233.40390015 C200.84568605 243.9811212 200.40008206 254.5845735 192.625 262.5 C185.24754945 268.38490275 176.28324688 274.5 166.625 274.5 C166.295 275.675625 165.965 276.85125 165.625 278.0625 C157.21894683 302.89149037 138.07604807 322.97077233 114.90066528 334.56163025 C105.11127058 339.30934016 94.91365506 343.16451194 84.8125 347.1875 C81.33576129 348.58002543 77.85992851 349.97479493 74.38417053 351.36976624 C72.00530476 352.32445035 69.62618298 353.27849678 67.24681091 354.23191833 C56.19017841 358.66490089 45.16147306 363.16487601 34.13766479 367.67874146 C19.28820171 373.75707865 4.43541758 379.82838005 -10.44845581 385.822052 C-11.96604783 386.43392228 -13.48293231 387.04755081 -14.99905396 387.66305542 C-17.04687489 388.49391831 -19.09720842 389.3182194 -21.1484375 390.140625 C-22.28716309 390.59985352 -23.42588867 391.05908203 -24.59912109 391.53222656 C-27.375 392.5 -27.375 392.5 -30.375 392.5 C-30.375 377.65 -30.375 362.8 -30.375 347.5 C-36.48 347.2525 -42.585 347.005 -48.875 346.75 C-64.0003022 346.06851328 -79.05828013 345.06112184 -94.125 343.5625 C-95.35875366 343.44352356 -95.35875366 343.44352356 -96.61743164 343.32214355 C-126.61449863 340.39593103 -150.25807067 330.55873293 -170.375 307.5 C-175.83169477 300.68938848 -180.0329388 293.5287703 -183.40209961 285.49243164 C-185.85106856 278.90537274 -185.85106856 278.90537274 -190.671875 274.1953125 C-193.12983481 273.76184473 -193.12983481 273.76184473 -195.6640625 273.72265625 C-204.22133342 273.01982564 -214.33525879 266.18031398 -219.90234375 259.73046875 C-225.95230103 251.12023969 -225.67318251 240.27228485 -225.60546875 230.1484375 C-225.60478142 228.43921616 -225.60478142 228.43921616 -225.6040802 226.69546509 C-225.60107887 224.30380197 -225.59325686 221.91214043 -225.58081055 219.52050781 C-225.56251599 215.87818409 -225.56030156 212.23611499 -225.56054688 208.59375 C-225.55563174 206.25781032 -225.54980344 203.92187235 -225.54296875 201.5859375 C-225.54185593 200.50758636 -225.5407431 199.42923523 -225.53959656 198.31820679 C-225.47210476 187.47573261 -225.16326575 178.56885551 -218.05078125 169.8828125 C-210.41945247 162.4718108 -197.99246559 156.5 -187.375 156.5 C-187.25125 155.94054687 -187.1275 155.38109375 -187 154.8046875 C-183.82665345 142.46830277 -176.62941327 132.01462904 -168.375 122.5 C-167.69953125 121.68015625 -167.0240625 120.8603125 -166.328125 120.015625 C-158.45952223 110.76858087 -149.29738022 103.70655437 -138.5625 98.125 C-137.9842749 97.81546387 -137.4060498 97.50592773 -136.81030273 97.18701172 C-124.13720959 90.96798082 -109.59504702 89.66091437 -95.75 88.3125 C-94.15874958 88.14748987 -92.56760286 87.98147651 -90.9765625 87.81445312 C-66.90063698 85.32116697 -66.90063698 85.32116697 -55.5 85.4375 C-54.32695312 85.44652344 -53.15390625 85.45554687 -51.9453125 85.46484375 C-50.67300781 85.48224609 -50.67300781 85.48224609 -49.375 85.5 C-49.26027344 84.56414062 -49.14554688 83.62828125 -49.02734375 82.6640625 C-48.29613786 79.117495 -47.18515373 77.80106279 -44.30078125 75.66015625 C-37.30712354 71.44693852 -30.43172432 70.11134486 -22.375 68.5 C-22.045 60.25 -21.715 52 -21.375 43.5 C-23.025 42.84 -24.675 42.18 -26.375 41.5 C-31.79242903 37.10614051 -34.33337141 31.2857552 -35.375 24.5 C-35.50681494 18.53317704 -34.58566415 13.61327994 -31.375 8.5 C-30.859375 7.654375 -30.34375 6.80875 -29.8125 5.9375 C-21.99092542 -1.88407458 -10.33198329 -4.46517883 0 0 Z " fill="#D0D2D3" transform="translate(268.375,60.5)"/>
<path d="M0 0 C0.6670269 -0.00159245 1.3340538 -0.00318489 2.02129364 -0.00482559 C21.95352514 -0.04500539 41.7447867 0.53744631 61.625 2.125 C62.67526367 2.20777191 63.72552734 2.29054382 64.80761719 2.37582397 C75.28645031 3.22309061 85.71294702 4.30757976 96.1171875 5.82421875 C97.34436996 6.00087822 97.34436996 6.00087822 98.59634399 6.18110657 C111.08378482 8.10678154 120.61252006 15.17200393 128.34326172 25.02441406 C136.03214378 35.64253396 140.38349915 46.05903324 141.75 59.125 C141.87141357 60.24229492 141.99282715 61.35958984 142.11791992 62.51074219 C144.4463547 86.16541106 146.1223422 114.82785373 137 137.3125 C136.51273437 138.57320313 136.51273437 138.57320313 136.015625 139.859375 C131.00458318 151.26131074 121.74553886 161.15711767 111 167.3125 C110.09894531 167.83585938 109.19789063 168.35921875 108.26953125 168.8984375 C80.05300961 181.10199883 36.7919341 176.81473305 6.56811523 176.70361328 C1.87433198 176.68651055 -2.81894079 176.69670955 -7.51270676 176.71395016 C-99.31354317 176.99841709 -99.31354317 176.99841709 -119.71484375 157.6640625 C-128.29958712 148.82984796 -135.0871169 138.00459465 -137.0625 125.6875 C-137.21847656 124.74648438 -137.37445313 123.80546875 -137.53515625 122.8359375 C-139.04846724 111.36529456 -139.24235089 99.99193334 -139.25 88.4375 C-139.25067474 87.52408844 -139.25134949 86.61067688 -139.25204468 85.66958618 C-139.22200839 60.10084776 -137.65040015 38.60901891 -119.3125 19.125 C-105.47687518 5.85366804 -90.16243527 5.30269365 -72.02807617 3.50756836 C-69.46531493 3.2527655 -66.90358157 2.98902786 -64.34179688 2.72460938 C-42.90582549 0.55153549 -21.53984318 0.04198509 0 0 Z " fill="#061942" transform="translate(256,187.6875)"/>
<path d="M0 0 C2.44140533 0.0050248 4.88281167 0.00958597 7.32421875 0.01367188 C13.25785783 0.02374255 19.19135574 0.04333173 25.125 0.0625 C25.125 13.9225 25.125 27.7825 25.125 42.0625 C21.9796875 42.16046875 18.834375 42.2584375 15.59375 42.359375 C-5.38592683 43.05501594 -26.30123458 43.89659912 -47.1875 46.0625 C-48.00009277 46.14608765 -48.81268555 46.22967529 -49.64990234 46.3157959 C-54.73173927 46.84590998 -59.80514845 47.42817809 -64.875 48.0625 C-66.11797852 48.21662354 -67.36095703 48.37074707 -68.64160156 48.52954102 C-82.28973814 50.40283357 -92.31575065 57.21989396 -100.875 68.0625 C-113.4482775 85.83218879 -114.23731735 105.91216787 -114.13574219 126.9831543 C-114.12499442 129.62637171 -114.13572629 132.26891196 -114.1484375 134.91210938 C-114.16677665 158.4331627 -111.99635326 181.44906241 -95.0625 199.375 C-86.45561402 207.49910128 -76.14584304 212.11400145 -64.43359375 213.16015625 C-63.24506805 213.27896652 -63.24506805 213.27896652 -62.03253174 213.400177 C-59.46016474 213.65352044 -56.88660893 213.89006917 -54.3125 214.125 C-52.51209695 214.29632957 -50.71172288 214.46796386 -48.91137695 214.63989258 C-24.26672773 216.95763213 0.38522617 218.26012896 25.125 219.0625 C25.125 232.9225 25.125 246.7825 25.125 261.0625 C-2.40262808 263.21309594 -30.07797464 260.80932807 -57.5 258.125 C-58.32795074 258.04577301 -59.15590149 257.96654602 -60.00894165 257.88491821 C-90.05371659 254.96813557 -113.72258681 245.16190579 -133.875 222.0625 C-139.33169477 215.25188848 -143.5329388 208.0912703 -146.90209961 200.05493164 C-149.35106856 193.46787274 -149.35106856 193.46787274 -154.171875 188.7578125 C-156.62983481 188.32434473 -156.62983481 188.32434473 -159.1640625 188.28515625 C-167.72133342 187.58232564 -177.83525879 180.74281398 -183.40234375 174.29296875 C-189.45230103 165.68273969 -189.17318251 154.83478485 -189.10546875 144.7109375 C-189.10478142 143.00171616 -189.10478142 143.00171616 -189.1040802 141.25796509 C-189.10107887 138.86630197 -189.09325686 136.47464043 -189.08081055 134.08300781 C-189.06251599 130.44068409 -189.06030156 126.79861499 -189.06054688 123.15625 C-189.05563174 120.82031032 -189.04980344 118.48437235 -189.04296875 116.1484375 C-189.04185593 115.07008636 -189.0407431 113.99173523 -189.03959656 112.88070679 C-188.97210476 102.03823261 -188.66326575 93.13135551 -181.55078125 84.4453125 C-173.91945247 77.0343108 -161.49246559 71.0625 -150.875 71.0625 C-150.75125 70.50304687 -150.6275 69.94359375 -150.5 69.3671875 C-147.32665345 57.03080277 -140.12941327 46.57712904 -131.875 37.0625 C-131.19953125 36.24265625 -130.5240625 35.4228125 -129.828125 34.578125 C-121.95952223 25.33108087 -112.79738022 18.26905437 -102.0625 12.6875 C-101.4842749 12.37796387 -100.9060498 12.06842773 -100.31030273 11.74951172 C-87.63720959 5.53048082 -73.09504702 4.22341437 -59.25 2.875 C-57.65874958 2.70998987 -56.06760286 2.54397651 -54.4765625 2.37695312 C-50.62757783 1.97757151 -46.77672245 1.60587904 -42.92327881 1.25222778 C-41.13313422 1.08641043 -39.34404581 0.90926948 -37.55517578 0.73022461 C-25.07251386 -0.36822641 -12.51835367 -0.04496901 0 0 Z " fill="#E6E8EA" transform="translate(231.875,145.9375)"/>
<path d="M0 0 C1.09014404 0.00418945 2.18028809 0.00837891 3.3034668 0.01269531 C11.7723859 0.13083413 19.50654827 1.00070852 27.6875 3.3125 C28.71488281 3.5909375 29.74226563 3.869375 30.80078125 4.15625 C46.71611555 8.94530001 62.80945641 18.55787585 71.37890625 33.203125 C77.53818168 45.01706052 79.76018514 55.73840822 76.125 68.875 C71.42356886 82.69786972 62.56294089 91.78053967 50.6875 99.75 C49.85009277 100.31348145 49.01268555 100.87696289 48.14990234 101.45751953 C29.89363828 113.58084705 9.74408804 122.26785684 -12.3125 124.3125 C-13.6325 123.9825 -14.9525 123.6525 -16.3125 123.3125 C-12.3525 118.3625 -12.3525 118.3625 -8.3125 113.3125 C-9.570625 113.09335938 -10.82875 112.87421875 -12.125 112.6484375 C-35.5279929 108.39063231 -56.10087676 100.46786615 -70.84375 80.6484375 C-77.60808236 69.8902706 -79.04043162 57.28525333 -76.6640625 44.9453125 C-71.62757871 28.37226755 -59.3694788 18.18039932 -44.84375 9.90625 C-30.91369287 2.48894685 -15.6357603 -0.08294186 0 0 Z " fill="#D0D2D3" transform="translate(412.3125,25.6875)"/>
<path d="M0 0 C2.57045118 0.0054664 5.14073496 -0.00004814 7.71118164 -0.00634766 C9.37459348 -0.00568835 11.03800521 -0.00441025 12.70141602 -0.00244141 C13.83272697 -0.00547775 13.83272697 -0.00547775 14.9868927 -0.00857544 C19.49416417 0.01127521 23.7650343 0.39347265 28.21313477 1.13037109 C22.41174784 8.23549116 15.86923799 14.60055729 9.37719727 21.06396484 C8.13001967 22.30927455 6.88306476 23.55480731 5.63632202 24.80055237 C2.37365372 28.05942475 -0.89200774 31.31528127 -4.1583252 34.57049561 C-7.49857585 37.90046888 -10.83595454 41.23331782 -14.17358398 44.56591797 C-20.70855416 51.09020249 -27.24669354 57.61130105 -33.78686523 64.13037109 C-35.55011593 61.48549505 -36.36529669 59.66292625 -37.28686523 56.69287109 C-38.22414164 53.68238004 -39.12151625 50.82143675 -40.78686523 48.13037109 C-48.54192014 44.32087044 -58.28102787 43.50290041 -66.78686523 45.13037109 C-71.62607977 47.59715733 -74.74449909 51.11146236 -76.78686523 56.13037109 C-77.8485487 61.1509712 -77.94784289 66.0096626 -77.95483398 71.11474609 C-77.95816238 71.97038147 -77.96149078 72.82601685 -77.96492004 73.70758057 C-77.96996574 75.51289333 -77.9723291 77.31821535 -77.97216797 79.12353516 C-77.9743472 81.85774473 -77.99250807 84.59154564 -78.01147461 87.32568359 C-78.54107288 103.72776011 -78.54107288 103.72776011 -71.78686523 118.13037109 C-68.55022213 121.0767323 -65.83258698 121.71086693 -61.53686523 122.31787109 C-59.92038086 122.55570313 -59.92038086 122.55570313 -58.27124023 122.79833984 C-57.45139648 122.90791016 -56.63155273 123.01748047 -55.78686523 123.13037109 C-60.20053097 128.41497379 -64.85508913 133.33193922 -69.73999023 138.18115234 C-70.48142273 138.92116989 -71.22285522 139.66118744 -71.98675537 140.42362976 C-74.33443466 142.76575558 -76.68558066 145.10436524 -79.03686523 147.44287109 C-80.63084708 149.03183125 -82.22459933 150.62102177 -83.81811523 152.21044922 C-87.3086164 155.69115855 -90.80129888 159.16966145 -94.29595947 162.64619446 C-95.46110017 163.80607636 -96.62435096 164.96785682 -97.78686523 166.13037109 C-113.07831802 154.72246187 -123.42080756 141.77906349 -126.39233398 122.47802734 C-126.5225293 121.37330078 -126.65272461 120.26857422 -126.78686523 119.13037109 C-126.87371582 118.42750977 -126.96056641 117.72464844 -127.05004883 117.00048828 C-128.08653556 107.44694626 -128.03051116 97.85358248 -128.03686523 88.25537109 C-128.03753998 87.34195953 -128.03821472 86.42854797 -128.03890991 85.48745728 C-128.00887363 59.91871885 -126.43726538 38.42689 -108.09936523 18.94287109 C-94.26374041 5.67153913 -78.9493005 5.12056474 -60.81494141 3.32543945 C-58.25218017 3.0706366 -55.69044681 2.80689896 -53.12866211 2.54248047 C-35.42739446 0.74918948 -17.78999657 -0.04503358 0 0 Z " fill="#071A43" transform="translate(244.786865234375,187.86962890625)"/>
<path d="M0 0 C14.81376266 -0.26442251 29.28040589 0.29866404 44 2 C39.21830486 7.76930434 34.06339956 13.03029032 28.72167969 18.28076172 C27.31795589 19.66745044 25.91423789 21.05414505 24.51073885 22.44106126 C23.01408397 23.91934756 21.51627898 25.39646142 20.01833344 26.87343979 C16.88664186 29.9626891 13.76220194 33.05920311 10.63946533 36.15750122 C10.11058236 36.68219588 9.58169939 37.20689054 9.03678966 37.74748504 C7.95611546 38.8196572 6.87546458 39.89185285 5.79483652 40.96407151 C-1.46577365 48.16790133 -8.73036031 55.3675089 -16.01757812 62.54443359 C-20.94707807 67.3994308 -25.86398007 72.26680181 -30.76674724 77.14879811 C-33.35654878 79.72665073 -35.95226051 82.29783495 -38.56351471 84.85396957 C-41.47463035 87.703879 -44.3576554 90.58070155 -47.23925781 93.46044922 C-48.10161041 94.29606384 -48.96396301 95.13167847 -49.85244751 95.99261475 C-54.25736364 100.44341719 -56.932763 103.72216212 -57.69349289 110.0431385 C-58.37884682 114.41870653 -61.31686568 117.3348429 -64.375 120.3125 C-70.71673364 124.38932877 -80.12262435 123.80473834 -87.3125 122.3125 C-92.15331483 119.94838113 -95.24933294 117.39779384 -97.8125 112.625 C-99.95571921 106.08254135 -100.15865101 99.66103076 -100.16796875 92.84765625 C-100.17129715 91.98869247 -100.17462555 91.1297287 -100.17805481 90.24473572 C-100.18309318 88.43700695 -100.1854641 86.62926898 -100.18530273 84.8215332 C-100.18749066 82.07422421 -100.20568325 79.32731634 -100.22460938 76.58007812 C-100.22754377 74.81510553 -100.22952826 73.05013104 -100.23046875 71.28515625 C-100.23765427 70.47345474 -100.24483978 69.66175323 -100.25224304 68.82545471 C-100.22423053 61.7451664 -99.65152925 54.98763297 -94.5625 49.625 C-93.66724609 48.65433594 -93.66724609 48.65433594 -92.75390625 47.6640625 C-88.57020197 43.69466823 -85.1638419 43.69416644 -79.6875 43.75 C-78.94048828 43.74226563 -78.19347656 43.73453125 -77.42382812 43.7265625 C-71.54596648 43.74720468 -66.91540583 44.3518601 -62.3125 48.3125 C-58.07532167 53.23678833 -56.85027284 56.52404505 -55 63 C-34.87 42.87 -14.74 22.74 6 2 C4.02 1.67 2.04 1.34 0 1 C0 0.67 0 0.34 0 0 Z " fill="#173064" transform="translate(266,188)"/>
<path d="M0 0 C5.89028491 3.50671623 10.55855237 8.96109999 12.625 15.5 C13.70642019 24.18551167 12.72125944 31.28491531 7.625 38.5 C3.5297619 42.5 3.5297619 42.5 0.625 42.5 C0.955 51.08 1.285 59.66 1.625 68.5 C4.079375 69.03625 6.53375 69.5725 9.0625 70.125 C16.94907125 71.99180006 23.95721331 74.49831996 28.625 81.5 C28.625 82.82 28.625 84.14 28.625 85.5 C2.885 85.5 -22.855 85.5 -49.375 85.5 C-48.21984226 78.56905356 -48.21984226 78.56905356 -44.30078125 75.66015625 C-37.30712354 71.44693852 -30.43172432 70.11134486 -22.375 68.5 C-22.045 60.25 -21.715 52 -21.375 43.5 C-23.025 42.84 -24.675 42.18 -26.375 41.5 C-31.79242903 37.10614051 -34.33337141 31.2857552 -35.375 24.5 C-35.50681494 18.53317704 -34.58566415 13.61327994 -31.375 8.5 C-30.859375 7.654375 -30.34375 6.80875 -29.8125 5.9375 C-21.99092542 -1.88407458 -10.33198329 -4.46517883 0 0 Z " fill="#2F7DE2" transform="translate(268.375,60.5)"/>
<path d="M0 0 C-0.29547729 1.19447754 -0.29547729 1.19447754 -0.59692383 2.41308594 C-9.26768937 38.51871631 -9.38011573 81.88499283 0 118 C-5.43710268 119.81236756 -10.83410781 117.02369214 -16 115 C-24.25641664 110.6344197 -31.5082867 105.36387993 -36 97 C-38.03541568 89.27452679 -38.28359729 81.59165673 -38.23046875 73.6484375 C-38.22978142 71.93921616 -38.22978142 71.93921616 -38.2290802 70.19546509 C-38.22607887 67.80380197 -38.21825686 65.41214043 -38.20581055 63.02050781 C-38.18751599 59.37818409 -38.18530156 55.73611499 -38.18554688 52.09375 C-38.18063174 49.75781032 -38.17480344 47.42187235 -38.16796875 45.0859375 C-38.16685593 44.00758636 -38.1657431 42.92923523 -38.16459656 41.81820679 C-38.09710476 30.97573261 -37.78826575 22.06885551 -30.67578125 13.3828125 C-23.26473051 6.18572911 -10.32533416 -0.28681484 0 0 Z " fill="#36BCFE" transform="translate(81,217)"/>
<path d="M0 0 C1.17852539 -0.01740234 1.17852539 -0.01740234 2.38085938 -0.03515625 C8.03261099 -0.00677925 12.3395991 0.89663146 16.671875 4.83984375 C24.39881782 14.81606787 23.22552592 25.48751666 23.1875 37.6875 C23.19330078 39.53118164 23.19330078 39.53118164 23.19921875 41.41210938 C23.17279033 66.45303483 23.17279033 66.45303483 18.0625 73.375 C12.77643339 78.52552644 7.89380156 79.66553987 0.625 79.6875 C-0.65246094 79.70425781 -1.92992187 79.72101563 -3.24609375 79.73828125 C-8.64662521 79.20680038 -12.62996593 77.30212045 -16.1875 73.1875 C-26.6766403 60.12400151 -22.85049724 33.16104306 -21.3125 17.75 C-20.15818796 10.56215623 -17.46861842 6.14576811 -11.796875 1.6953125 C-7.81513266 -0.14325159 -4.33238239 -0.0636595 0 0 Z " fill="#35BAFD" transform="translate(326.9375,231.625)"/>
<path d="M0 0 C1.12051758 -0.01160156 1.12051758 -0.01160156 2.26367188 -0.0234375 C8.14153352 -0.00279532 12.77209417 0.6018601 17.375 4.5625 C24.05665238 12.32766357 23.84095272 20.25672614 23.85546875 30.125 C23.86046135 31.33905518 23.86046135 31.33905518 23.86555481 32.57763672 C23.87057792 34.27505939 23.87296458 35.97249178 23.87280273 37.66992188 C23.8749946 40.24365658 23.89321428 42.8169655 23.91210938 45.390625 C23.91504336 47.05208189 23.91702812 48.71354078 23.91796875 50.375 C23.92515427 51.13151855 23.93233978 51.88803711 23.93974304 52.66748047 C23.90601764 60.68120951 22.86908513 67.88405255 17.6875 74.25 C12.60608848 79.19769016 7.99130353 79.28077282 1.1875 79.4375 C-6.33014132 79.33577278 -10.89925469 77.66324531 -16.3125 72.25 C-20.28353112 64.85566619 -20.46926448 57.29051091 -20.48046875 49.09765625 C-20.48379715 48.23869247 -20.48712555 47.3797287 -20.49055481 46.49473572 C-20.49559318 44.68700695 -20.4979641 42.87926898 -20.49780273 41.0715332 C-20.49999066 38.32422421 -20.51818325 35.57731634 -20.53710938 32.83007812 C-20.54004377 31.06510553 -20.54202826 29.30013104 -20.54296875 27.53515625 C-20.55015427 26.72345474 -20.55733978 25.91175323 -20.56474304 25.07545471 C-20.53673053 17.9951664 -19.96402925 11.23763297 -14.875 5.875 C-14.27816406 5.22789062 -13.68132812 4.58078125 -13.06640625 3.9140625 C-8.88270197 -0.05533177 -5.4763419 -0.05583356 0 0 Z " fill="#35BBFD" transform="translate(186.3125,231.75)"/>
<path d="M0 0 C12.02239921 3.09362992 24.17686112 8.35190911 30.875 19.3125 C35.15699601 26.75636723 34.15937639 36.7597483 34.16796875 45.0859375 C34.17296135 46.79228867 34.17296135 46.79228867 34.17805481 48.53311157 C34.18309465 50.9283203 34.18546405 53.32353598 34.18530273 55.71875 C34.18748912 59.35688988 34.20567638 62.99472613 34.22460938 66.6328125 C34.22754404 68.97135314 34.22952835 71.30989521 34.23046875 73.6484375 C34.23765427 74.72274017 34.24483978 75.79704285 34.25224304 76.90390015 C34.22068605 87.4811212 33.77508206 98.0845735 26 106 C18.62254945 111.88490275 9.65824688 118 0 118 C0.19335938 116.90945313 0.38671875 115.81890625 0.5859375 114.6953125 C0.8492393 113.17192353 1.11224338 111.64848309 1.375 110.125 C1.50132812 109.41730469 1.62765625 108.70960938 1.7578125 107.98046875 C4.55520582 91.6157178 5.36871175 75.51547669 5.3125 58.9375 C5.31167419 57.90662262 5.31084839 56.87574524 5.30999756 55.81362915 C5.27498315 36.81352266 3.8727269 18.62538042 0 0 Z " fill="#317DE2" transform="translate(435,217)"/>
<path d="M0 0 C-4.43539238 5.3083201 -9.11234177 10.25540965 -14.0090332 15.13842773 C-15.17836647 16.31038948 -15.17836647 16.31038948 -16.37132263 17.50602722 C-18.92864557 20.06772423 -21.4895761 22.62577865 -24.05078125 25.18359375 C-25.83357625 26.96706265 -27.6162228 28.75067996 -29.39872742 30.53443909 C-33.12332555 34.26050781 -36.84967101 37.98482017 -40.57739258 41.70776367 C-44.89080524 46.01571148 -49.20057137 50.32728226 -53.50850803 54.64070553 C-57.65813712 58.79540807 -61.81056005 62.94730943 -65.96419334 67.09800911 C-67.73087261 68.86401929 -69.49680384 70.6307781 -71.26198769 72.398283 C-73.71823507 74.85705312 -76.17763582 77.31262359 -78.63793945 79.76733398 C-79.37297699 80.50439575 -80.10801453 81.24145752 -80.86532593 82.00085449 C-81.53116196 82.6638707 -82.19699799 83.3268869 -82.88301086 84.00999451 C-83.46424367 84.59085029 -84.04547647 85.17170607 -84.6443224 85.77016354 C-86 87 -86 87 -87 87 C-87.74875294 60.47878692 -86.3156278 37.00332329 -67.3125 16.8125 C-54.07735777 4.11715965 -40.25617333 3.23978803 -22.75 1.375 C-20.94789063 1.17390625 -20.94789063 1.17390625 -19.109375 0.96875 C-12.69668875 0.27966749 -6.44907427 -0.15223137 0 0 Z " fill="#173064" transform="translate(204,190)"/>
<path d="M0 0 C2.53354248 1.26677124 2.69801435 2.25629673 3.8125 4.8125 C5.71382362 8.64946716 7.12464851 10.90085127 11 13 C14.9752628 13.90417742 18.9544315 14.50962806 23 15 C18.58633427 20.2846027 13.93177611 25.20156812 9.046875 30.05078125 C7.93472626 31.16080757 7.93472626 31.16080757 6.80010986 32.29325867 C4.45243057 34.63538449 2.10128457 36.97399415 -0.25 39.3125 C-1.84398185 40.90146016 -3.4377341 42.49065068 -5.03125 44.08007812 C-8.52175116 47.56078745 -12.01443364 51.03929036 -15.50909424 54.51582336 C-16.67423494 55.67570526 -17.83748573 56.83748573 -19 58 C-27.19166138 51.88876055 -34.30137395 46.20930706 -39 37 C-38.33846924 36.66444092 -37.67693848 36.32888184 -36.99536133 35.9831543 C-32.83950117 33.23166256 -29.56410669 29.8095996 -26.07421875 26.26953125 C-25.32662796 25.51911057 -24.57903717 24.76868988 -23.80879211 23.99552917 C-21.43027929 21.60585247 -19.05882877 19.20930367 -16.6875 16.8125 C-15.07272703 15.18769236 -13.45749774 13.56333807 -11.84179688 11.93945312 C-7.88922799 7.96487416 -3.94242935 3.98463532 0 0 Z " fill="#173064" transform="translate(166,296)"/>
<path d="M0 0 C-26.05381081 13.71976371 -50.91740751 15.65402427 -80 16 C-81.1640033 16.01446167 -82.32800659 16.02892334 -83.52728271 16.04382324 C-99.35326393 16.22412296 -115.17440249 16.19220176 -131 16 C-131 12.7 -131 9.4 -131 6 C-128.62542603 5.97812622 -128.62542603 5.97812622 -126.20288086 5.95581055 C-92.08729912 5.61785225 -58.27736632 4.66182358 -24.32421875 1.1015625 C-23.63702759 1.02962677 -22.94983643 0.95769104 -22.24182129 0.88357544 C-19.04995081 0.54709693 -15.8604509 0.19742769 -12.67236328 -0.17333984 C-11.58036621 -0.29660645 -10.48836914 -0.41987305 -9.36328125 -0.546875 C-8.41751221 -0.65870117 -7.47174316 -0.77052734 -6.49731445 -0.88574219 C-4.07652968 -0.99649859 -2.29638026 -0.72875303 0 0 Z " fill="#9FACBA" transform="translate(369,401)"/>
<path d="M0 0 C1.6015625 1.46484375 1.6015625 1.46484375 3.6015625 4.46484375 C3.6015625 5.78484375 3.6015625 7.10484375 3.6015625 8.46484375 C-22.1384375 8.46484375 -47.8784375 8.46484375 -74.3984375 8.46484375 C-73.24327976 1.53389731 -73.24327976 1.53389731 -69.32421875 -1.375 C-50.52718394 -12.69897432 -17.9462805 -13.06128909 0 0 Z " fill="#2F7DE0" transform="translate(293.3984375,137.53515625)"/>
<path d="M0 0 C0 15.51 0 31.02 0 47 C-6.83605561 47 -11.47010209 45.88045782 -16.8046875 41.52734375 C-21.63070848 36.44921719 -23.90432242 30.33100504 -24.05859375 23.34765625 C-23.7019969 18.30219025 -22.72459598 14.33917138 -20 10 C-19.484375 9.154375 -18.96875 8.30875 -18.4375 7.4375 C-13.05587282 2.05587282 -7.53259515 0 0 0 Z " fill="#35BBFE" transform="translate(257,59)"/>
<path d="M0 0 C1.32 0.33 2.64 0.66 4 1 C5.95658407 1.09265161 7.9162298 1.12998415 9.875 1.125 C10.88304687 1.12757812 11.89109375 1.13015625 12.9296875 1.1328125 C16.50761831 1.04039201 16.50761831 1.04039201 22 0 C22 8.25 22 16.5 22 25 C18.37193321 25.72561336 16.26851403 26.11768417 12.79296875 25.87890625 C11.77626099 25.81425171 11.77626099 25.81425171 10.73901367 25.74829102 C9.4760144 25.65632446 9.4760144 25.65632446 8.1875 25.5625 C5.485625 25.376875 2.78375 25.19125 0 25 C0 16.75 0 8.5 0 0 Z " fill="#01052C" transform="translate(247,104)"/>
<path d="M0 0 C0 4.95 0 9.9 0 15 C-12.68270851 15.74136918 -25.29571603 16.13809004 -38 16 C-37.3046875 10.328125 -37.3046875 10.328125 -34.5625 7.375 C-24.35516482 -0.20132755 -12.20347572 -1.56454817 0 0 Z " fill="#36BCFE" transform="translate(257,130)"/>
<path d="M0 0 C3.77062132 2.07014504 7.005306 4.12142833 9 8 C9.4065857 11.72703559 9.32666609 14.219631 7.875 17.6875 C4.81945055 21.45601098 1.83371519 23.6943808 -3 24.5 C-6.82533091 23.86244485 -8.98324847 22.39968871 -12 20 C-14.8288298 15.7567553 -14.65268001 11.98265471 -14 7 C-10.62437586 1.21321576 -6.63336797 -0.79600416 0 0 Z " fill="#1A3266" transform="translate(456,70)"/>
<path d="M0 0 C3.77062132 2.07014504 7.005306 4.12142833 9 8 C9.4065857 11.72703559 9.32666609 14.219631 7.875 17.6875 C4.81945055 21.45601098 1.83371519 23.6943808 -3 24.5 C-6.85379558 23.85770074 -8.99024197 22.4625293 -12 20 C-14.57224924 15.82665684 -14.69932104 11.77585103 -14 7 C-10.56417713 1.2327259 -6.66321886 -0.79958626 0 0 Z " fill="#193265" transform="translate(415,70)"/>
<path d="M0 0 C3.77062132 2.07014504 7.005306 4.12142833 9 8 C9.54819106 13.02508472 9.0345498 15.9539336 6 20 C3.73510066 22.68211764 2.16984179 23.49844827 -1.3125 23.9375 C-4.93462662 24.23246145 -6.01957223 23.99039181 -9.4375 22.3125 C-12.37669443 19.66005625 -13.70711323 17.7234074 -14.37109375 13.81640625 C-14.49981227 9.44754815 -14.48352619 7.61420894 -11.6875 4.0625 C-7.45700345 0.81583986 -5.38621448 -0.63367229 0 0 Z " fill="#193265" transform="translate(374,70)"/>
<path d="M0 0 C3.63 0.66 7.26 1.32 11 2 C10.67 9.59 10.34 17.18 10 25 C6.7 25 3.4 25 0 25 C0 16.75 0 8.5 0 0 Z " fill="#171A3B" transform="translate(247,104)"/>
</svg>
